<svg width="73" height="71" viewBox="0 0 73 71" fill="none" xmlns="http://www.w3.org/2000/svg">
<path d="M58.268 70.3763C56.0116 70.3763 53.834 69.1483 52.7245 67.0058C51.1414 63.9475 52.3373 60.1845 55.3964 58.6014C58.5236 56.9823 60.4663 53.7924 60.4663 50.2757C60.4663 45.1117 56.2656 40.911 51.1016 40.911C48.2874 40.911 45.6736 42.1368 43.9061 44.2792L43.6674 44.6113L34.575 56.7619L34.0448 57.335C30.3514 61.5327 25.0359 63.9383 19.4441 63.9383C14.2502 63.9383 9.36779 61.916 5.69504 58.2433C2.0223 54.5705 0 49.6881 0 44.4942C0 40.09 1.81036 35.6284 5.53589 30.8553L26.5723 2.89659C28.6428 0.144334 32.5527 -0.408108 35.3042 1.6624C38.0565 3.73291 38.6089 7.64285 36.5384 10.3943L15.4332 38.4472L15.3964 38.4939C13.4568 40.9714 12.4735 42.9907 12.4735 44.4942C12.4735 48.3384 15.6007 51.4663 19.4449 51.4663C21.4618 51.4663 23.3801 50.5925 24.7068 49.0683L24.8308 48.9306L24.9777 48.7714L33.6385 37.1969L33.9583 36.7478L34.0654 36.6139C36.0587 34.1164 38.6319 32.0543 41.5058 30.6495C44.5083 29.1819 47.7365 28.4382 51.1024 28.4382C54.0474 28.4382 56.9084 29.0167 59.604 30.1568C62.2048 31.257 64.54 32.8302 66.5432 34.8341C68.5464 36.8381 70.1203 39.1726 71.2206 41.7733C72.3607 44.4697 72.9391 47.3299 72.9391 50.275C72.9391 54.354 71.8052 58.3351 69.6604 61.7875C67.5792 65.1373 64.6295 67.8651 61.1305 69.6762C60.2131 70.1514 59.2337 70.3763 58.268 70.3763Z" fill="url(#paint0_linear_80_263)"/>
<path d="M65.7696 22.4057C69.799 22.4057 73.0654 19.1393 73.0654 15.11C73.0654 11.0807 69.799 7.81424 65.7696 7.81424C61.7403 7.81424 58.4739 11.0807 58.4739 15.11C58.4739 19.1393 61.7403 22.4057 65.7696 22.4057Z" fill="url(#paint1_linear_80_263)"/>
<path d="M65.7696 22.4057C69.799 22.4057 73.0654 19.1393 73.0654 15.11C73.0654 11.0807 69.799 7.81424 65.7696 7.81424C61.7403 7.81424 58.4739 11.0807 58.4739 15.11C58.4739 19.1393 61.7403 22.4057 65.7696 22.4057Z" fill="#893BFF"/>
<defs>
<linearGradient id="paint0_linear_80_263" x1="88.5" y1="8" x2="1.87648e-06" y2="70" gradientUnits="userSpaceOnUse">
<stop stop-color="#AE51FF"/>
<stop offset="1" stop-color="#4512FF"/>
</linearGradient>
<linearGradient id="paint1_linear_80_263" x1="76.1783" y1="9.39728" x2="57.996" y2="21.6162" gradientUnits="userSpaceOnUse">
<stop stop-color="#AE51FF"/>
<stop offset="1" stop-color="#4512FF"/>
</linearGradient>
</defs>
</svg>
